<svg width="105" height="24" viewBox="0 0 105 24" fill="none" xmlns="http://www.w3.org/2000/svg">
<path d="M38.237 8.278V9.785H36.191V16H34.31V9.785H32.264V8.278H38.237ZM46.369 8.278V16H44.488V12.821H41.562V16H39.681V8.278H41.562V11.303H44.488V8.278H46.369ZM53.0339 14.636H50.1519L49.6899 16H47.7209L50.5149 8.278H52.6929L55.4869 16H53.4959L53.0339 14.636ZM52.5499 13.184L51.5929 10.357L50.6469 13.184H52.5499ZM59.7303 8.278C60.5443 8.278 61.2556 8.43933 61.8643 8.762C62.4729 9.08467 62.9423 9.53933 63.2723 10.126C63.6096 10.7053 63.7783 11.3763 63.7783 12.139C63.7783 12.8943 63.6096 13.5653 63.2723 14.152C62.9423 14.7387 62.4693 15.1933 61.8533 15.516C61.2446 15.8387 60.5369 16 59.7303 16H56.8373V8.278H59.7303ZM59.6093 14.372C60.3206 14.372 60.8743 14.1777 61.2703 13.789C61.6663 13.4003 61.8643 12.8503 61.8643 12.139C61.8643 11.4277 61.6663 10.874 61.2703 10.478C60.8743 10.082 60.3206 9.884 59.6093 9.884H58.7183V14.372H59.6093ZM70.1365 14.636H67.2545L66.7925 16H64.8235L67.6175 8.278H69.7955L72.5895 16H70.5985L70.1365 14.636ZM69.6525 13.184L68.6955 10.357L67.7495 13.184H69.6525ZM78.7468 14.636H75.8648L75.4028 16H73.4338L76.2278 8.278H78.4058L81.1998 16H79.2088L78.7468 14.636ZM78.2628 13.184L77.3058 10.357L76.3598 13.184H78.2628ZM86.4882 16L84.8822 13.085H84.4312V16H82.5502V8.278H85.7072C86.3158 8.278 86.8328 8.38433 87.2582 8.597C87.6908 8.80967 88.0135 9.103 88.2262 9.477C88.4388 9.84367 88.5452 10.2543 88.5452 10.709C88.5452 11.2223 88.3985 11.6807 88.1052 12.084C87.8192 12.4873 87.3938 12.7733 86.8292 12.942L88.6112 16H86.4882ZM84.4312 11.754H85.5972C85.9418 11.754 86.1985 11.6697 86.3672 11.501C86.5432 11.3323 86.6312 11.094 86.6312 10.786C86.6312 10.4927 86.5432 10.2617 86.3672 10.093C86.1985 9.92433 85.9418 9.84 85.5972 9.84H84.4312V11.754ZM92.0739 8.278V12.898C92.0739 13.36 92.1876 13.7157 92.4149 13.965C92.6423 14.2143 92.9759 14.339 93.4159 14.339C93.8559 14.339 94.1933 14.2143 94.4279 13.965C94.6626 13.7157 94.7799 13.36 94.7799 12.898V8.278H96.6609V12.887C96.6609 13.5763 96.5143 14.1593 96.2209 14.636C95.9276 15.1127 95.5316 15.472 95.0329 15.714C94.5416 15.956 93.9916 16.077 93.3829 16.077C92.7743 16.077 92.2279 15.9597 91.7439 15.725C91.2673 15.483 90.8896 15.1237 90.6109 14.647C90.3323 14.163 90.1929 13.5763 90.1929 12.887V8.278H92.0739ZM101.276 16.077C100.711 16.077 100.205 15.9853 99.7578 15.802C99.3105 15.6187 98.9511 15.3473 98.6798 14.988C98.4158 14.6287 98.2765 14.196 98.2618 13.69H100.264C100.293 13.976 100.392 14.196 100.561 14.35C100.729 14.4967 100.949 14.57 101.221 14.57C101.499 14.57 101.719 14.5077 101.881 14.383C102.042 14.251 102.123 14.0713 102.123 13.844C102.123 13.6533 102.057 13.4957 101.925 13.371C101.8 13.2463 101.642 13.1437 101.452 13.063C101.268 12.9823 101.004 12.8907 100.66 12.788C100.161 12.634 99.7541 12.48 99.4388 12.326C99.1235 12.172 98.8521 11.9447 98.6248 11.644C98.3975 11.3433 98.2838 10.951 98.2838 10.467C98.2838 9.74833 98.5441 9.18733 99.0648 8.784C99.5855 8.37333 100.264 8.168 101.1 8.168C101.95 8.168 102.636 8.37333 103.157 8.784C103.677 9.18733 103.956 9.752 103.993 10.478H101.958C101.943 10.2287 101.851 10.0343 101.683 9.895C101.514 9.74833 101.298 9.675 101.034 9.675C100.806 9.675 100.623 9.73733 100.484 9.862C100.344 9.97933 100.275 10.1517 100.275 10.379C100.275 10.6283 100.392 10.8227 100.627 10.962C100.861 11.1013 101.228 11.2517 101.727 11.413C102.225 11.5817 102.629 11.743 102.937 11.897C103.252 12.051 103.523 12.2747 103.751 12.568C103.978 12.8613 104.092 13.239 104.092 13.701C104.092 14.141 103.978 14.5407 103.751 14.9C103.531 15.2593 103.208 15.5453 102.783 15.758C102.357 15.9707 101.855 16.077 101.276 16.077Z" fill="#5A67BA"/>
<circle cx="12" cy="12" r="12" fill="#5A67BA"/>
<path d="M10.675 15.231L10.961 13.691C11.6723 13.691 12.292 13.6727 12.82 13.636C13.348 13.592 13.7843 13.5297 14.129 13.449C14.481 13.361 14.7413 13.2473 14.91 13.108C15.086 12.9687 15.174 12.8 15.174 12.602C15.174 12.338 15.13 12.0227 15.042 11.656C14.954 11.282 14.8403 10.9043 14.701 10.523L16.142 10.105C16.2373 10.3543 16.329 10.6293 16.417 10.93C16.505 11.2233 16.5747 11.5203 16.626 11.821C16.6847 12.1143 16.714 12.3893 16.714 12.646C16.714 13.1007 16.615 13.493 16.417 13.823C16.219 14.1457 15.889 14.4133 15.427 14.626C14.9723 14.8313 14.3563 14.9817 13.579 15.077C12.8017 15.1797 11.8337 15.231 10.675 15.231ZM10.664 15.231C9.872 15.231 9.201 15.1687 8.651 15.044C8.10833 14.9267 7.66467 14.758 7.32 14.538C6.98267 14.3107 6.737 14.0467 6.583 13.746C6.429 13.4453 6.352 13.1153 6.352 12.756C6.352 12.5213 6.37033 12.2867 6.407 12.052C6.451 11.81 6.50233 11.5753 6.561 11.348C6.627 11.1207 6.68567 10.9153 6.737 10.732L8.112 11.051C8.08267 11.183 8.04967 11.326 8.013 11.48C7.97633 11.634 7.947 11.7843 7.925 11.931C7.903 12.0703 7.892 12.1987 7.892 12.316C7.892 12.5873 7.98733 12.8293 8.178 13.042C8.376 13.2473 8.69867 13.4087 9.146 13.526C9.59333 13.636 10.1947 13.691 10.95 13.691L11.17 14.879L10.664 15.231ZM12.479 10.204C12.2663 10.204 12.083 10.1307 11.929 9.984C11.7823 9.83 11.709 9.65033 11.709 9.445C11.709 9.23233 11.7823 9.049 11.929 8.895C12.083 8.741 12.2663 8.664 12.479 8.664C12.6843 8.664 12.8603 8.741 13.007 8.895C13.1537 9.049 13.227 9.23233 13.227 9.445C13.227 9.65033 13.1537 9.83 13.007 9.984C12.8603 10.1307 12.6843 10.204 12.479 10.204ZM10.576 10.193C10.3633 10.193 10.18 10.1197 10.026 9.973C9.87933 9.819 9.806 9.63933 9.806 9.434C9.806 9.22133 9.87933 9.038 10.026 8.884C10.18 8.73 10.3633 8.653 10.576 8.653C10.7813 8.653 10.9573 8.73 11.104 8.884C11.2507 9.038 11.324 9.22133 11.324 9.434C11.324 9.63933 11.2507 9.819 11.104 9.973C10.9573 10.1197 10.7813 10.193 10.576 10.193Z" fill="white"/>
</svg>
